# AST/ASF file generated using VICON BodyLanguage
# -----------------------------------------------
:version 1.10
:name VICON
:units
  mass 1.0
  length 0.45
  angle deg
:documentation
   .ast/.asf automatically generated from VICON data using
   VICON BodyBuilder and BodyLanguage model FoxedUp or BRILLIANT.MOD
:root
   order TX TY TZ RX RY RZ
   axis XYZ
   position 0 0 0  
   orientation 0 0 0 
:bonedata
  begin
     id 1 
     name lhipjoint
     direction 0.661853 -0.702389 0.261917 
     length 2.64193 
     axis 0 0 0  XYZ
  end
  begin
     id 2 
     name lfemur
     direction 0.34202 -0.939693 0  
     length 7.01722  
     axis 0 0 20  XYZ
    dof rx ry rz
    limits (-160.0 20.0)
           (-70.0 70.0)
           (-60.0 70.0)
  end
  begin
     id 3 
     name ltibia
     direction 0.34202 -0.939693 0   
     length 8.25008   
     axis 0 0 20   XYZ
    dof rx
    limits (-10.0 170.0)
  end
  begin
     id 4 
     name lfoot
     direction 0.0709916 -0.195048 0.978221   
     length 2.31941   
     axis -90 7.62852e-016 20   XYZ
    dof rx rz
    limits (-45.0 90.0)
           (-70.0 20.0)
  end
  begin
     id 5 
     name ltoes
     direction 1.53586e-011 -4.22017e-011 1   
     length 1.16486   
     axis -90 7.62852e-016 20   XYZ
    dof rx
    limits (-90.0 20.0)
  end
  begin
     id 6 
     name rhipjoint
     direction -0.638185 -0.721362 0.268992   
     length 2.57244  
     axis 0 0 0  XYZ 
  end
  begin
     id 7 
     name rfemur
     direction -0.34202 -0.939693 0   
     length 7.07017   
     axis 0 0 -20   XYZ
    dof rx ry rz
    limits (-160.0 20.0)
           (-70.0 70.0)
           (-70.0 60.0)
  end
  begin
     id 8 
     name rtibia
     direction -0.34202 -0.939693 0   
     length 8.20386   
     axis 0 0 -20   XYZ
    dof rx
    limits (-10.0 170.0)
 end
 begin
     id 9 
     name rfoot
     direction -0.0822429 -0.225961 0.970658   
     length 2.32215  
     axis -90 -7.62852e-016 -20   XYZ
    dof rx rz
    limits (-45.0 90.0)
           (-20.0 70.0)
  end
  begin
     id 10 
     name rtoes
     direction -1.53597e-011 -4.21689e-011 1   
     length 1.16333   
     axis -90 -7.62852e-016 -20   XYZ
    dof rx
    limits (-90.0 20.0)
  end
  begin
     id 11 
     name lowerback
     direction -0.0131557 0.998589 -0.0514484   
     length 2.14993   
     axis 0 0 0   XYZ
    dof rx ry rz
    limits (-20.0 45.0)
           (-30.0 30.0)
           (-30.0 30.0)
  end
  begin
     id 12 
     name upperback
     direction -0.000776481 0.999993 0.00352685   
     length 2.15301   
     axis 0 0 0   XYZ
    dof rx ry rz
    limits (-20.0 45.0)
           (-30.0 30.0)
           (-30.0 30.0)
  end
  begin
     id 13 
     name thorax
     direction 0.00438186 0.999609 0.0276143   
     length 2.15424   
     axis 0 0 0   XYZ
    dof rx ry rz
    limits (-20.0 45.0)
           (-30.0 30.0)
           (-30.0 30.0)
  end
  begin
     id 14 
     name lowerneck
     direction -0.0488006 0.998094 0.0377807   
     length 1.90481   
     axis 0 0 0   XYZ
    dof rx ry rz
    limits (-20.0 45.0)
           (-30.0 30.0)
           (-30.0 30.0)
  end
  begin
     id 15 
     name upperneck
     direction 0.0443769 0.990702 -0.12861   
     length 1.91305   
     axis 0 0 0   XYZ
    dof rx ry rz
    limits (-20.0 45.0)
           (-30.0 30.0)
           (-30.0 30.0)
  end
  begin
     id 16
     name head
     direction 0.0165599 0.998647 -0.0492982  
     length 1.92369  
     axis 0 0 0   XYZ
    dof rx ry rz
    limits (-20.0 45.0)
           (-30.0 30.0)
           (-30.0 30.0)
  end
  begin
     id 17 
     name lclavicle
     direction 0.911936 0.410197 -0.0105506  
     length 3.52622  
     axis 0 0 0   XYZ
    dof ry rz
    limits (-20.0 10.0)
           (0.0 20.0)
  end
  begin
     id 18 
     name lhumerus
     direction 1 -4.48974e-011 -2.48591e-028   
     length 5.47651   
     axis 180 -30 -90   XYZ
    dof rx ry rz
    limits (-60.0 90.0)
           (-90.0 90.0)
           (-90.0 90.0)
  end
  begin
     id 19
     name lradius
     direction 1 -4.48938e-011 -4.40099e-027   
     length 3.09058   
     axis 180 -30 -90   XYZ
    dof rx
    limits (-10.0 170.0)
  end
  begin
     id 20
     name lwrist
     direction 1 -4.49042e-011 -2.99852e-027   
     length 1.54529   
     axis 1.95339e-015 90 90   XYZ
    dof ry
    limits (-180.0 0.0)
 end
  begin
     id 21 
     name lhand
     direction 1 -4.48815e-011 -5.98193e-027   
     length 0.771611   
     axis 3.82337e-015 90 90   XYZ
    dof rx rz
    limits (-90.0 90.0)
           (-45.0 45.0)
  end
  begin
     id 22 
     name lfingers
     direction 1 -4.49034e-011 -1.1993e-026   
     length 0.622093   
     axis 7.64668e-015 90 90   XYZ
    dof rx
    limits (0.0 90.0)
  end
  begin
     id 23
     name lthumb
     direction 0.707107 -6.34867e-011 0.707107   
     length 0.893204   
     axis -90 45 -1.62303e-014   XYZ
    dof rx rz
    limits (-45.0 45.0)
           (-45.0 45.0)
  end
  begin
     id 24 
     name rclavicle
     direction -0.93442 0.355634 -0.0195692   
     length 3.62463  
     axis 0 0 0   XYZ 
    dof ry rz
    limits (-10.0 20.0)
           (-20.0 0.0)
  end
  begin
     id 25 
     name rhumerus
     direction -1 -4.48957e-011 -1.19147e-027  
     length 5.14182   
     axis 180 30 90   XYZ
    dof rx ry rz
    limits (-90.0 60.0)
           (-90.0 90.0)
           (-90.0 90.0)
  end
  begin
     id 26 
     name rradius
     direction -1 -4.48952e-011 -3.81062e-027   
     length 3.35565   
     axis 180 30 90   XYZ
    dof rx
    limits (-10.0 170.0)
  end
  begin
     id 27 
     name rwrist
     direction -1 -4.48973e-011 -2.99621e-027   
     length 1.67782   
     axis 1.95339e-015 -90 -90   XYZ
    dof ry
    limits (-180.0 0.0)
  end
  begin
     id 28
     name rhand
     direction -1 -4.48895e-011 -5.98727e-027   
     length 0.801042   
     axis 3.82337e-015 -90 -90   XYZ
    dof rx rz
    limits (-90.0 90.0)
           (-45.0 45.0)
  end
  begin
     id 29
     name rfingers
     direction -1 -4.49065e-011 -1.19972e-026   
     length 0.645821   
     axis 7.64668e-015 -90 -90   XYZ
    dof rx
    limits (0.0 90.0)
  end
  begin
     id 30
     name rthumb
     direction -0.707107 -6.34957e-011 0.707107   
     length 0.927273   
     axis -90 -45 1.62303e-014   XYZ
    dof rx rz
    limits (-45.0 45.0)
           (-45.0 45.0)
  end
:hierarchy
  begin
    root lhipjoint rhipjoint lowerback
    lhipjoint lfemur
    lfemur ltibia
    ltibia lfoot
    lfoot ltoes
    rhipjoint rfemur
    rfemur rtibia
    rtibia rfoot
    rfoot rtoes
    lowerback upperback
    upperback thorax
    thorax lowerneck lclavicle rclavicle
    lowerneck upperneck
    upperneck head
    lclavicle lhumerus
    lhumerus lradius
    lradius lwrist
    lwrist lhand lthumb
    lhand lfingers
    rclavicle rhumerus
    rhumerus rradius
    rradius rwrist
    rwrist rhand rthumb
    rhand rfingers
  end

#!OML:ASF E:\Style4\Style4.ASF
:FULLY-SPECIFIED
:DEGREES
233
root -0.780771 17.8344 -1.09768 3.55514 16.5068 2.99598
lowerback 8.01718 4.63068 2.74254
upperback 0.433397 6.39057 -0.523513
thorax -3.66648 3.12393 -2.75749
lowerneck -5.44482 -4.22198 -4.65161
upperneck 4.83211 -5.4602 3.05635
head 2.73581 -2.70862 1.57091
rclavicle 4.68138e-014 6.36111e-015
rhumerus 51.8966 20.7401 -48.9232
rradius 81.8773
rwrist -39.2104
rhand -33.2249 40.5407
rfingers 7.12502
rthumb -6.43138 10.6583
lclavicle 4.68138e-014 6.36111e-015
lhumerus 47.242 -19.2798 49.4228
lradius 90.2081
lwrist 35.2057
lhand -22.0952 16.8334
lfingers 7.12502
lthumb 4.31679 46.7694
rfemur -14.4947 -7.86096 19.0209
rtibia 32.6031
rfoot -21.4479 -22.4829
rtoes -3.95572
lfemur -18.0535 -7.14267 -19.512
ltibia 29.7777
lfoot -13.4844 3.32265
ltoes -16.7661
234
root -0.787453 17.834 -1.09085 3.59153 16.922 2.96752
lowerback 7.8775 4.69278 2.80884
upperback 0.452694 6.47417 -0.548096
thorax -3.55315 3.16751 -2.81215
lowerneck -5.52684 -4.30506 -4.64148
upperneck 4.80547 -5.5717 3.11333
head 2.74886 -2.76129 1.58127
rclavicle -3.80673e-014 -1.27222e-014
rhumerus 52.7282 20.0147 -48.2245
rradius 82.2488
rwrist -38.7784
rhand -33.3723 40.9569
rfingers 7.12502
rthumb -6.57362 11.0789
lclavicle -3.80673e-014 -1.27222e-014
lhumerus 48.1965 -18.8306 48.7365
lradius 90.5484
lwrist 34.8143
lhand -22.3953 16.8292
lfingers 7.12502
lthumb 4.02709 46.7709
rfemur -14.4731 -8.12639 19.0952
rtibia 32.5978
rfoot -21.4837 -22.6289
rtoes -4.09175
lfemur -18.179 -7.14286 -19.4952
ltibia 29.8149
lfoot -13.4067 3.06763
ltoes -15.3631
235
root -0.796519 17.8347 -1.08335 3.60636 17.3753 2.90706
lowerback 7.82291 4.72879 2.90979
upperback 0.415217 6.52898 -0.580533
thorax -3.54316 3.19291 -2.90258
lowerneck -5.43333 -4.3553 -4.58667
upperneck 4.68359 -5.64691 3.14021
head 2.69239 -2.79728 1.57905
rclavicle 1.29707e-014 0
rhumerus 53.4315 19.3601 -47.5901
rradius 82.5853
rwrist -38.4312
rhand -33.5961 41.4416
rfingers 7.12502
rthumb -6.78964 11.5705
lclavicle 1.29707e-014 0
lhumerus 49.0413 -18.426 47.9196
lradius 90.9274
lwrist 34.6494
lhand -22.756 16.7598
lfingers 7.12502
lthumb 3.67874 46.7078
rfemur -14.4169 -8.43701 19.2265
rtibia 32.6094
rfoot -21.5239 -22.7239
rtoes -3.94218
lfemur -18.3114 -7.13089 -19.4462
ltibia 29.9045
lfoot -13.3345 2.80137
ltoes -14.4738
236
root -0.805654 17.8352 -1.07449 3.58161 17.8581 2.85248
lowerback 7.84646 4.69071 2.95793
upperback 0.365099 6.48564 -0.541351
thorax -3.61057 3.16846 -2.89009
lowerneck -5.31512 -4.32835 -4.66012
upperneck 4.56573 -5.60709 3.11991
head 2.63102 -2.78019 1.58988
rclavicle 6.38099e-014 -6.36111e-015
rhumerus 54.1682 18.8942 -46.9001
rradius 82.9582
rwrist -38.2693
rhand -33.692 41.8038
rfingers 7.12502
rthumb -6.88226 11.9357
lclavicle 6.38099e-014 -6.36111e-015
lhumerus 49.756 -17.9206 47.2409
lradius 91.2565
lwrist 34.4848
lhand -23.2207 16.7261
lfingers 7.12502
lthumb 3.22994 46.6814
rfemur -14.29 -8.79133 19.3596
rtibia 32.6327
rfoot -21.5721 -22.7368
rtoes -3.55542
lfemur -18.3968 -7.0959 -19.4338
ltibia 30.0279
lfoot -13.3516 2.73349
ltoes -15.3624
237
root -0.81214 17.8327 -1.0653 3.58637 18.268 2.88679
lowerback 7.85103 4.68601 2.92993
upperback 0.365098 6.47714 -0.540677
thorax -3.61684 3.16456 -2.87375
lowerneck -5.38013 -4.31867 -4.73797
upperneck 4.53845 -5.58584 3.13678
head 2.63677 -2.76993 1.60916
rclavicle 1.04511e-013 -7.15625e-015
rhumerus 54.8939 18.3655 -46.2418
rradius 83.3876
rwrist -38.2028
rhand -33.7066 41.8147
rfingers 7.12502
rthumb -6.89634 11.947
lclavicle 1.04511e-013 -7.15625e-015
lhumerus 50.4357 -17.4187 46.6955
lradius 91.639
lwrist 34.1271
lhand -23.4635 16.7209
lfingers 7.12502
lthumb 2.99546 46.6796
rfemur -14.2331 -9.07101 19.3661
rtibia 32.6832
rfoot -21.6693 -22.8746
rtoes -3.56547
lfemur -18.4642 -6.96002 -19.5614
ltibia 30.1541
lfoot -13.2729 2.87322
ltoes -17.7074
238
root -0.818795 17.8315 -1.05432 3.6224 18.6319 2.94876
lowerback 7.80623 4.70893 2.83447
upperback 0.377395 6.49765 -0.543788
thorax -3.58789 3.17724 -2.82155
lowerneck -5.46963 -4.32879 -4.79339
upperneck 4.53003 -5.59167 3.15009
head 2.65358 -2.77268 1.62154
rclavicle 7.60351e-015 2.38542e-015
rhumerus 55.5678 17.8631 -45.4641
rradius 83.8951
rwrist -38.1755
rhand -33.9855 41.997
rfingers 7.12502
rthumb -7.16555 12.1383
lclavicle 7.60351e-015 2.38542e-015
lhumerus 51.0149 -16.9239 46.1704
lradius 92.0314
lwrist 33.6568
lhand -23.4707 16.7301
lfingers 7.12502
lthumb 2.98853 46.6889
rfemur -14.2234 -9.29582 19.3314
rtibia 32.7504
rfoot -21.8286 -23.0822
rtoes -3.82474
lfemur -18.5703 -6.83636 -19.6982
ltibia 30.2857
lfoot -13.1809 2.97692
ltoes -19.6988
